<?xml version="1.0" encoding="UTF-8"?><svg id="Camada_2" xmlns="http://www.w3.org/2000/svg" viewBox="0 0 403.39 224.14"><defs><style>.cls-1{fill:#a41a72;}.cls-2{fill-rule:evenodd;}.cls-2,.cls-3{fill:#ee7203;}</style></defs><g id="Camada_1-2"><g><path class="cls-1" d="M166.43,109.3h-29.48v33.42h19.02v-22.29h19.01c1.07,0,1.96,.35,2.7,1.08,.74,.72,1.1,1.59,1.1,2.64v18.57h19.02v-19.53c0-1.67-.36-3.23-1.07-4.67-.71-1.45-1.65-2.66-2.8-3.65,1.15-1.03,2.09-2.27,2.8-3.7,.71-1.43,1.07-2.99,1.07-4.68v-8.32c0-1.53-.3-2.98-.91-4.34-.61-1.35-1.43-2.53-2.44-3.52-.45-.44-.95-.84-1.47-1.2l-6.09,8.81c.94,1.69,1.48,3.63,1.48,5.71,0,6.47-5.25,11.71-11.71,11.71-4.4,0-8.24-2.43-10.24-6.03m-10.46-11.13h10.33c1.96-3.72,5.87-6.26,10.37-6.26,.11,0,.23,0,.34,0l3.48-4.88h-43.54v11.08l19.02,.05Z"/><path class="cls-3" d="M20.78,98.19c.89-.02,1.04-.03,2.05-.03H60.86v-11.13H11.41c-1.57,0-3.05,.29-4.45,.89-1.38,.6-2.59,1.38-3.61,2.38-1.01,.98-1.83,2.17-2.44,3.52-.61,1.37-.91,2.82-.91,4.34l20.78,.03Z"/><path class="cls-3" d="M0,109.3c0,1.53,.3,2.98,.91,4.34,.61,1.35,1.43,2.54,2.44,3.52,1.02,1,2.23,1.79,3.61,2.38,1.4,.6,2.88,.88,4.45,.88h26.62c1.07,0,1.96,.35,2.7,1.08,.74,.72,1.1,1.59,1.1,2.64v3.72c0,1.05-.36,1.91-1.1,2.64-.74,.72-1.63,1.08-2.7,1.08H0v11.13H49.45c1.57,0,3.05-.29,4.45-.89,1.39-.6,2.59-1.4,3.61-2.38,1.01-1,1.83-2.17,2.44-3.52,.61-1.37,.91-2.82,.91-4.34v-11.15c0-1.53-.3-2.98-.91-4.34-.61-1.35-1.43-2.53-2.44-3.52-1.02-.98-2.23-1.79-3.61-2.38-1.4-.6-2.88-.89-4.45-.89H0Z"/><path class="cls-3" d="M68.48,109.25v22.34c0,1.53,.3,2.98,.91,4.34,.61,1.35,1.43,2.54,2.44,3.52,1.02,1,2.23,1.79,3.61,2.38,1.4,.6,2.88,.89,4.45,.89h49.45v-11.13h-38.03c-1.07,0-1.96-.35-2.7-1.08-.74-.72-1.1-1.59-1.1-2.64v-7.43h41.84v-11.13h-41.84v-.05h-19.02Z"/><path class="cls-3" d="M90.91,98.18c.13-.01,.26-.02,.39-.02h38.03v-11.13h-49.45c-1.57,0-3.05,.29-4.45,.89-1.38,.6-2.59,1.4-3.61,2.38-1.01,1-1.83,2.17-2.44,3.52-.61,1.37-.91,2.82-.91,4.34l22.44,.02Z"/><path class="cls-1" d="M204.53,109.22v22.34c0,1.53,.3,2.98,.91,4.34,.61,1.35,1.43,2.54,2.44,3.52,1.02,1,2.23,1.79,3.61,2.38,1.4,.6,2.88,.88,4.45,.88h49.45v-11.13h-38.03c-1.07,0-1.96-.35-2.7-1.08-.74-.72-1.1-1.59-1.1-2.64v-7.43h41.84v-11.13h-41.84v-.06h-19.02Z"/><path class="cls-1" d="M226.97,98.16c.13-.01,.26-.02,.39-.02h38.03v-11.13h-49.45c-1.57,0-3.05,.29-4.45,.88-1.38,.6-2.59,1.4-3.61,2.38-1.01,1-1.83,2.17-2.44,3.52-.61,1.37-.91,2.82-.91,4.34l22.44,.02Z"/><path class="cls-2" d="M313.8,132.13c.78-1.25,1.53-2.5,2.25-3.73v.26c0,1.1-.41,2.02-1.21,2.76-.32,.29-.67,.53-1.04,.71m-136.34-38.25c8.4-12.03,20.06-27.94,35.17-43.65,24.82-25.62,41.51-33.2,59.25-41.49,39.82-17.38,75.53-8.19,88.34,21.54,4.48,11.85,9.03,27.13,1.79,55.4h-9.74c-1.57,0-3.05,.36-4.45,1.1-1.39,.74-2.59,1.74-3.61,2.95-1.01,1.24-1.83,2.7-2.44,4.37-.61,1.7-.91,3.49-.91,5.39l16.98,.02c-.66,1.93-1.37,3.92-2.13,5.96-.3,.73-.61,1.45-.92,2.17h-13.93v23.56c0,1.04,.12,2.05,.37,3.02-26.25,43.66-61.2,65.7-82.38,77.59-47.68,22.48-89.53,14.93-100.01-28.47-3.04-18.62-3.76-37.35,5.84-58.4,3.41,.08,6.81,.16,10.22,.24-22.22,69.83,29.47,101.01,86.14,61.08,19.44-13.14,33.72-27.59,44.38-41.86h18.73c1.67,0,3.25-.31,4.74-.94,1.47-.63,2.76-1.49,3.84-2.54,1.07-1.06,1.95-2.31,2.6-3.76,.65-1.46,.97-3,.97-4.63v-35.62c0-1.63-.32-3.17-.97-4.63-.52-1.15-1.18-2.18-1.98-3.09,1.13-3.42,2.11-6.62,3-9.52,8.91-44.06-4.55-58.7-21.78-67.63-40.27-12.75-87.83,26.4-113.15,61.79-6.03,8.17-10.86,16.13-16.67,24.26,1.05,1.55,1.67,3.42,1.67,5.43,0,5.34-4.77,9.67-9.67,9.67s-8.21-3.32-9.33-7.42H0v-4.09H167.28c.86-4.45,4.78-7.82,9.49-7.82,.23,0,.46,0,.69,.03Z"/><path class="cls-1" d="M273.91,109.25v33.47h49.45c1.57,0,3.05-.29,4.45-.89,1.38-.59,2.59-1.4,3.61-2.38,1.01-1,1.83-2.17,2.44-3.52,.61-1.37,.91-2.82,.91-4.34v-33.42c0-1.53-.3-2.98-.91-4.34-.61-1.35-1.43-2.53-2.44-3.52-1.02-.98-2.23-1.79-3.61-2.38-1.4-.6-2.88-.89-4.45-.89h-49.45v11.16l19.02-.03h19.01c1.07,0,1.98,.35,2.7,1.08,.74,.72,1.1,1.59,1.1,2.64v26.07c0,1.03-.38,1.9-1.14,2.59-.76,.69-1.65,1.05-2.67,1.05h-19.01v-22.34h-19.02Z"/><path class="cls-1" d="M342.53,109.18v22.34c0,1.53,.3,2.98,.91,4.34,.61,1.35,1.43,2.54,2.44,3.52,1.02,1,2.23,1.79,3.61,2.38,1.4,.6,2.88,.88,4.45,.88h49.45v-11.13h-38.03c-1.07,0-1.96-.35-2.7-1.08-.74-.72-1.1-1.59-1.1-2.64v-7.43h41.84v-11.13h-41.84v-.06h-19.02Z"/><path class="cls-1" d="M364.97,98.12c.13-.01,.26-.02,.39-.02h38.03v-11.13h-49.45c-1.57,0-3.05,.29-4.45,.88-1.38,.6-2.59,1.4-3.61,2.38-1.01,1-1.83,2.17-2.44,3.52-.61,1.37-.91,2.82-.91,4.34l22.44,.02Z"/></g></g></svg>